<?xml version="1.0" encoding="iso-8859-1"?>
<!-- Generator: Adobe Illustrator 19.0.0, SVG Export Plug-In . SVG Version: 6.00 Build 0)  -->
<svg xmlns="http://www.w3.org/2000/svg" xmlns:xlink="http://www.w3.org/1999/xlink" version="1.1" id="Capa_1" x="0px" y="0px" viewBox="0 0 512 512" style="enable-background:new 0 0 512 512;" xml:space="preserve" width="512px" height="512px">
<g>
	<g>
		<path d="M437.001,362H437h-45v-46c0-102.84-80.273-186.814-181-194.434V90h45c41.355,0,75-33.645,75-75c0-8.284-6.716-15-15-15    H196c-8.284,0-15,6.716-15,15c0,10.712,0,95.931,0,106.566C80.349,129.18,0,213.1,0,316v181c0,8.284,6.716,15,15,15    c10.883,0,471.811,0,482,0c8.284,0,15-6.716,15-15v-60C512,395.645,478.355,362.001,437.001,362z M211,29.9h87.43    C292.239,47.361,275.557,60,256,60h-45V29.9z M343.839,241c9.433,18.296,15.516,38.565,17.468,60H301v-60H343.839z M196,151    c51.438,0,97.485,23.376,127.957,60H68.043C98.515,174.376,144.563,151,196,151z M271,241v60H120v-60H271z M48.161,241H90v60    H30.693C32.646,279.565,38.729,259.296,48.161,241z M30,331h151v61H30V331z M90,482H30v-60h60V482z M241,437v45    c-4.45,0-116.674,0-121,0v-60.1h122.509C241.521,426.748,241,431.865,241,437z M256.041,392H211v-61h151v31h-46    C291.516,362,269.738,373.796,256.041,392z M362,437v45h-91v-45c0-24.813,20.187-45,45-45h61.041    C367.603,404.544,362,420.129,362,437z M482,482h-30v-45c0-8.284-6.716-15-15-15s-15,6.716-15,15v45c-10.856,0-19.144,0-30,0v-45    c0-24.813,20.187-45,45-45s45,20.187,45,45V482z" fill="#FFFFFF"/>
	</g>
</g>
<g>
</g>
<g>
</g>
<g>
</g>
<g>
</g>
<g>
</g>
<g>
</g>
<g>
</g>
<g>
</g>
<g>
</g>
<g>
</g>
<g>
</g>
<g>
</g>
<g>
</g>
<g>
</g>
<g>
</g>
</svg>
