<?xml version="1.0" encoding="iso-8859-1"?>
<!-- Generator: Adobe Illustrator 19.0.0, SVG Export Plug-In . SVG Version: 6.00 Build 0)  -->
<svg xmlns="http://www.w3.org/2000/svg" xmlns:xlink="http://www.w3.org/1999/xlink" version="1.1" id="Capa_1" x="0px" y="0px" viewBox="0 0 512 512" style="enable-background:new 0 0 512 512;" xml:space="preserve" width="512px" height="512px">
<g>
	<g>
		<path d="M471,405v-25c0-57.561-22.166-111.679-62.868-152.382c-40.703-40.702-94.945-63.118-152.507-63.118    c-37.166,0-72.625,9.358-104.625,26.936V92h-15v10.922L43.306,140L136,177.078v23.51c-11,7.824-22.707,16.856-32.881,27.03    C62.416,268.321,40,322.439,40,380v25H0v15h512v-15H471z M448,322.219c3.334,11.058,5.736,22.781,7.116,34.781H359v-33h89V322.219    z M295,309v-33h81v33H295z M443.311,309H391v-33h36.049C433.434,286,438.888,297,443.311,309z M416.897,261H343v-33h43.014    C397.497,237,407.868,248,416.897,261z M263,179.654C301,181.051,336.406,193,366.067,213H263V179.654z M328,228v33H215v-33H328z     M280,276v33H151v-33H280z M248,179.654V213H145.933C175.594,193,211,181.051,248,179.654z M83.694,140L136,119.078v41.844    L83.694,140z M125.985,228H200v33H95.103C104.132,248,114.503,237,125.985,228z M84.951,276H136v33H68.689    C73.112,297,78.566,286,84.951,276z M64,322.219V324h120v33H56.884C58.264,345,60.666,333.277,64,322.219z M104,405H55v-25    c0-2.849,0.575-6,0.693-8H104V405z M184.895,405H119v-33h78.12C190.51,381,186.169,392,184.895,405z M199,324h145v33h-42.988    c-12.3-10-27.965-16-45.012-16s-32.712,6-45.012,16H199V324z M200.013,405c3.682-28,27.377-49,55.987-49s52.305,21,55.987,49    H200.013z M392,405h-64.895c-1.274-13-5.615-24-12.225-33H392V405z M456,380v25h-49v-33h49.307C456.426,374,456,377.151,456,380z" fill="#FFFFFF"/>
	</g>
</g>
<g>
	<g>
		<rect x="408" y="332" width="15" height="16" fill="#FFFFFF"/>
	</g>
</g>
<g>
	<g>
		<rect x="104" y="284" width="15" height="16" fill="#FFFFFF"/>
	</g>
</g>
<g>
	<g>
		<rect x="280" y="188" width="15" height="16" fill="#FFFFFF"/>
	</g>
</g>
<g>
</g>
<g>
</g>
<g>
</g>
<g>
</g>
<g>
</g>
<g>
</g>
<g>
</g>
<g>
</g>
<g>
</g>
<g>
</g>
<g>
</g>
<g>
</g>
<g>
</g>
<g>
</g>
<g>
</g>
</svg>
