<?xml version="1.0" encoding="iso-8859-1"?>
<!-- Generator: Adobe Illustrator 19.0.0, SVG Export Plug-In . SVG Version: 6.00 Build 0)  -->
<svg xmlns="http://www.w3.org/2000/svg" xmlns:xlink="http://www.w3.org/1999/xlink" version="1.1" id="Capa_1" x="0px" y="0px" viewBox="0 0 511.999 511.999" style="enable-background:new 0 0 511.999 511.999;" xml:space="preserve" width="512px" height="512px">
<g>
	<g>
		<path d="M447.98,259.212h2.489c22.123,0,42.93-8.616,58.587-24.261c3.921-3.919,3.924-10.275,0.006-14.198    c-3.92-3.921-10.277-3.924-14.198-0.006c-11.154,11.146-25.755,17.581-41.39,18.314l-82.514-130.986v-29.75    c0-5.544-4.496-10.039-10.039-10.039c-5.544,0-10.039,4.496-10.039,10.039v22.609H161.12V78.325    c0-5.544-4.496-10.039-10.039-10.039c-5.544,0-10.039,4.496-10.039,10.039v29.75L58.525,239.061    c-15.635-0.733-30.236-7.168-41.39-18.314c-3.922-3.918-10.279-3.915-14.198,0.006c-3.918,3.922-3.915,10.278,0.006,14.198    c15.658,15.645,36.464,24.261,58.588,24.261h2.489h28.481v164.422H33.762c-5.544,0-10.039,4.496-10.039,10.039    s4.496,10.039,10.039,10.039h444.476c5.544,0,10.039-4.496,10.039-10.039s-4.496-10.039-10.039-10.039h-58.74V259.212H447.98z     M156.622,121.013h198.756l30.882,49.021H125.74L156.622,121.013z M143.19,423.635h-30.61V259.212h30.61V423.635z M304.59,423.635    H266.04v-43.651c0-5.544-4.496-10.039-10.039-10.039c-5.544,0-10.039,4.496-10.039,10.039v43.651h-38.551v-87.302h97.18V423.635z     M348.733,423.635h-24.064v-97.341c0-5.544-4.496-10.039-10.039-10.039H197.37c-5.544,0-10.039,4.496-10.039,10.039v97.341    h-24.064V259.212h24.064v9.767c0,5.544,4.496,10.039,10.039,10.039s10.039-4.496,10.039-10.039v-9.767h38.411v9.767    c0,5.544,4.496,10.039,10.039,10.039c5.544,0,10.039-4.496,10.039-10.039v-9.767h38.691v9.767c0,5.544,4.496,10.039,10.039,10.039    s10.039-4.496,10.039-10.039v-9.767h24.064V423.635z M399.421,423.635h-30.61V259.212h30.61V423.635z M409.46,239.134h-50.688    H153.229h-50.688H82.209l30.882-49.022H398.91l30.882,49.022H409.46z" fill="#FFFFFF"/>
	</g>
</g>
<g>
	<g>
		<path d="M386.78,204.734c-12.919,0-12.941,20.078,0,20.078C399.701,224.812,399.722,204.734,386.78,204.734z" fill="#FFFFFF"/>
	</g>
</g>
<g>
	<g>
		<path d="M353.985,204.435h-55.55c-5.544,0-10.039,4.496-10.039,10.039s4.496,10.039,10.039,10.039h55.55    c5.544,0,10.039-4.496,10.039-10.039S359.53,204.435,353.985,204.435z" fill="#FFFFFF"/>
	</g>
</g>
<g>
</g>
<g>
</g>
<g>
</g>
<g>
</g>
<g>
</g>
<g>
</g>
<g>
</g>
<g>
</g>
<g>
</g>
<g>
</g>
<g>
</g>
<g>
</g>
<g>
</g>
<g>
</g>
<g>
</g>
</svg>
